<svg id="レイヤー_1" data-name="レイヤー 1" xmlns="http://www.w3.org/2000/svg" xmlns:xlink="http://www.w3.org/1999/xlink" viewBox="0 0 31 26"><defs><style>.cls-1{fill:url(#名称未設定グラデーション_14);}</style><linearGradient id="名称未設定グラデーション_14" y1="13" x2="31" y2="13" gradientUnits="userSpaceOnUse"><stop offset="0" stop-color="#d92c6b"/><stop offset="1" stop-color="#ec6e1e"/></linearGradient></defs><path class="cls-1" d="M24.5,3a6.58,6.58,0,0,0-2.62.55,7.51,7.51,0,0,0-12.76,0A6.5,6.5,0,1,0,5,15.82V25a1,1,0,0,0,1,1H25a1,1,0,0,0,1-1V15.82A6.44,6.44,0,0,0,31,9.5,6.51,6.51,0,0,0,24.5,3ZM7,24V22H24v2ZM24.91,14A1,1,0,0,0,24,15v5H7V15a1,1,0,0,0-.91-1A4.5,4.5,0,1,1,7,5.05a4.45,4.45,0,0,1,2,.7,1,1,0,0,0,.84.13,1,1,0,0,0,.63-.57,5.51,5.51,0,0,1,10.1,0A1,1,0,0,0,22,5.75,4.45,4.45,0,0,1,24.5,5a4.5,4.5,0,0,1,.41,9Z" transform="translate(0 0)"/></svg>